<?xml version="1.0" encoding="UTF-8" standalone="no"?>
<svg
   version="1.1"
   width="256"
   height="256"
   viewBox="0 0 256 256"
   xml:space="preserve"
   id="svg10"
   sodipodi:docname="github.svg"
   inkscape:export-filename="/home/fernando/Proyectos/PROGRAMACION/SOURCEFORGE.NET/LATEX-MACROS-PACKAGES/homepage/examples/env-box-simple-ex1/src/github.png"
   inkscape:export-xdpi="665.242"
   inkscape:export-ydpi="665.242"
   inkscape:version="1.1.1 (3bf5ae0d25, 2021-09-20)"
   xmlns:inkscape="http://www.inkscape.org/namespaces/inkscape"
   xmlns:sodipodi="http://sodipodi.sourceforge.net/DTD/sodipodi-0.dtd"
   xmlns="http://www.w3.org/2000/svg"
   xmlns:svg="http://www.w3.org/2000/svg"><sodipodi:namedview
   id="namedview12"
   pagecolor="#ffffff"
   bordercolor="#666666"
   borderopacity="1.0"
   inkscape:pageshadow="2"
   inkscape:pageopacity="0.0"
   inkscape:pagecheckerboard="0"
   showgrid="false"
   inkscape:zoom="2.8085938"
   inkscape:cx="127.82197"
   inkscape:cy="128"
   inkscape:window-width="1848"
   inkscape:window-height="1016"
   inkscape:window-x="72"
   inkscape:window-y="27"
   inkscape:window-maximized="1"
   inkscape:current-layer="svg10" />

<defs
   id="defs2">
</defs>
<g
   style="stroke: none; stroke-width: 0; stroke-dasharray: none; stroke-linecap: butt; stroke-linejoin: miter; stroke-miterlimit: 10; fill: none; fill-rule: nonzero; opacity: 1;"
   transform="translate(1.4065934065934016 1.4065934065934016) scale(2.81 2.81)"
   id="g8">
	<path
   d="M 62.631 4.724 H 27.369 c -3.479 0 -6.693 1.856 -8.433 4.869 L 1.305 40.131 c -1.739 3.013 -1.739 6.725 0 9.737 l 17.631 30.538 c 1.739 3.013 4.954 4.869 8.433 4.869 h 35.263 c 3.479 0 6.693 -1.856 8.433 -4.869 l 17.631 -30.538 c 1.739 -3.013 1.739 -6.725 0 -9.737 L 71.064 9.593 C 69.325 6.58 66.11 4.724 62.631 4.724 z"
   style="stroke:none;stroke-width:1;stroke-dasharray:none;stroke-linecap:butt;stroke-linejoin:miter;stroke-miterlimit:10;fill:#2c007f;fill-rule:nonzero;opacity:1;fill-opacity:1"
   transform=" matrix(1 0 0 1 0 0) "
   stroke-linecap="round"
   id="path4" />
	<path
   d="M 8.478 18.772 c 0 0 0.711 0.334 1.205 1.588 c 0 0 0.637 1.937 3.657 1.281 c 0.003 0.576 0.008 1.131 0.011 1.525 c 0.002 0.197 0.162 0.355 0.359 0.355 h 4.669 c 0.198 0 0.358 -0.158 0.359 -0.356 c 0.004 -0.556 0.01 -1.447 0.01 -2.482 c 0 -1.013 -0.347 -1.673 -0.736 -2.01 c 2.417 -0.269 4.956 -1.186 4.956 -5.355 c 0 -1.185 -0.421 -2.153 -1.117 -2.913 c 0.113 -0.273 0.484 -1.377 -0.107 -2.872 c 0 0 -0.91 -0.291 -2.982 1.113 c -0.867 -0.241 -1.797 -0.361 -2.719 -0.365 c -0.922 0.004 -1.851 0.125 -2.717 0.365 c -2.074 -1.404 -2.985 -1.113 -2.985 -1.113 c -0.589 1.495 -0.218 2.599 -0.105 2.872 c -0.694 0.76 -1.118 1.728 -1.118 2.913 c 0 4.159 2.534 5.089 4.945 5.364 c -0.31 0.271 -0.592 0.75 -0.689 1.451 c -0.619 0.277 -2.191 0.757 -3.159 -0.902 c 0 0 -0.574 -1.042 -1.664 -1.119 C 8.552 18.112 7.493 18.098 8.478 18.772 z"
   style="stroke: none; stroke-width: 1; stroke-dasharray: none; stroke-linecap: butt; stroke-linejoin: miter; stroke-miterlimit: 10; fill: rgb(255,255,255); fill-rule: nonzero; opacity: 1;"
   transform=" matrix(2.81 0 0 2.81 1.4065934065934016 1.4065934065934016) "
   stroke-linecap="round"
   id="path6" />
</g>
</svg>
