<?xml version="1.0" encoding="UTF-8" standalone="no"?>
<!-- Created with Inkscape (http://www.inkscape.org/) -->

<svg
   version="1.1"
   id="svg2"
   width="90.252998"
   height="92.584999"
   viewBox="0 0 90.252999 92.585004"
   sodipodi:docname="corner1.svg"
   inkscape:version="1.1.1 (3bf5ae0d25, 2021-09-20)"
   inkscape:export-filename="/mnt/boveda/BOVEDA-VECTORES/frame/otros/corner1.png"
   inkscape:export-xdpi="665.24188"
   inkscape:export-ydpi="665.24188"
   xmlns:inkscape="http://www.inkscape.org/namespaces/inkscape"
   xmlns:sodipodi="http://sodipodi.sourceforge.net/DTD/sodipodi-0.dtd"
   xmlns="http://www.w3.org/2000/svg"
   xmlns:svg="http://www.w3.org/2000/svg">
  <defs
     id="defs6">
    <inkscape:path-effect
       effect="bspline"
       id="path-effect2525"
       is_visible="true"
       lpeversion="1"
       weight="33.333333"
       steps="2"
       helper_size="0"
       apply_no_weight="true"
       apply_with_weight="true"
       only_selected="false" />
    <inkscape:path-effect
       effect="bspline"
       id="path-effect1130"
       is_visible="true"
       lpeversion="1"
       weight="33.333333"
       steps="2"
       helper_size="0"
       apply_no_weight="true"
       apply_with_weight="true"
       only_selected="false" />
    <inkscape:path-effect
       effect="bspline"
       id="path-effect1013"
       is_visible="true"
       lpeversion="1"
       weight="33.333333"
       steps="2"
       helper_size="0"
       apply_no_weight="true"
       apply_with_weight="true"
       only_selected="false" />
    <inkscape:path-effect
       effect="bspline"
       id="path-effect1009"
       is_visible="true"
       lpeversion="1"
       weight="33.333333"
       steps="2"
       helper_size="0"
       apply_no_weight="true"
       apply_with_weight="true"
       only_selected="false" />
    <inkscape:path-effect
       effect="bspline"
       id="path-effect1005"
       is_visible="true"
       lpeversion="1"
       weight="33.333333"
       steps="2"
       helper_size="0"
       apply_no_weight="true"
       apply_with_weight="true"
       only_selected="false" />
    <inkscape:path-effect
       effect="bspline"
       id="path-effect1001"
       is_visible="true"
       lpeversion="1"
       weight="33.333333"
       steps="2"
       helper_size="0"
       apply_no_weight="true"
       apply_with_weight="true"
       only_selected="false" />
    <inkscape:path-effect
       effect="bspline"
       id="path-effect997"
       is_visible="true"
       lpeversion="1"
       weight="33.333333"
       steps="2"
       helper_size="0"
       apply_no_weight="true"
       apply_with_weight="true"
       only_selected="false" />
    <inkscape:path-effect
       effect="bspline"
       id="path-effect993"
       is_visible="true"
       lpeversion="1"
       weight="33.333333"
       steps="2"
       helper_size="0"
       apply_no_weight="true"
       apply_with_weight="true"
       only_selected="false" />
    <inkscape:path-effect
       effect="bspline"
       id="path-effect989"
       is_visible="true"
       lpeversion="1"
       weight="33.333333"
       steps="2"
       helper_size="0"
       apply_no_weight="true"
       apply_with_weight="true"
       only_selected="false" />
    <inkscape:path-effect
       effect="bspline"
       id="path-effect981"
       is_visible="true"
       lpeversion="1"
       weight="33.333333"
       steps="2"
       helper_size="0"
       apply_no_weight="true"
       apply_with_weight="true"
       only_selected="false" />
    <inkscape:path-effect
       effect="bspline"
       id="path-effect973"
       is_visible="true"
       lpeversion="1"
       weight="33.333333"
       steps="2"
       helper_size="0"
       apply_no_weight="true"
       apply_with_weight="true"
       only_selected="false" />
    <inkscape:path-effect
       effect="bspline"
       id="path-effect965"
       is_visible="true"
       lpeversion="1"
       weight="33.333333"
       steps="2"
       helper_size="0"
       apply_no_weight="true"
       apply_with_weight="true"
       only_selected="false" />
    <inkscape:path-effect
       effect="bspline"
       id="path-effect961"
       is_visible="true"
       lpeversion="1"
       weight="33.333333"
       steps="2"
       helper_size="0"
       apply_no_weight="true"
       apply_with_weight="true"
       only_selected="false" />
  </defs>
  <sodipodi:namedview
     id="namedview4"
     pagecolor="#ffffff"
     bordercolor="#666666"
     borderopacity="1.0"
     inkscape:pageshadow="2"
     inkscape:pageopacity="0.0"
     inkscape:pagecheckerboard="0"
     showgrid="false"
     inkscape:zoom="5.4195984"
     inkscape:cx="34.688917"
     inkscape:cy="60.613347"
     inkscape:window-width="1848"
     inkscape:window-height="1016"
     inkscape:window-x="72"
     inkscape:window-y="27"
     inkscape:window-maximized="1"
     inkscape:current-layer="g8">
    <sodipodi:guide
       position="3.4741212e-07,92.585003"
       orientation="0,84.252968"
       id="guide5602" />
    <sodipodi:guide
       position="84.252971,92.585003"
       orientation="86.585045,0"
       id="guide5604" />
    <sodipodi:guide
       position="84.252971,5.9999552"
       orientation="0,-84.252968"
       id="guide5606" />
    <sodipodi:guide
       position="3.4741212e-07,5.9999552"
       orientation="-86.585045,0"
       id="guide5608" />
  </sodipodi:namedview>
  <g
     inkscape:groupmode="layer"
     inkscape:label="Image"
     id="g8"
     transform="translate(-12.465,-656.68286)">
    <rect
       style="fill:#ffffff;fill-opacity:1;stroke:#ffffff;stroke-width:0;stroke-linecap:round;stroke-linejoin:round;stroke-miterlimit:4;stroke-dasharray:none;stroke-opacity:1;paint-order:markers fill stroke"
       id="rect5520"
       width="90.252998"
       height="92.584999"
       x="12.465"
       y="656.68286" />
    <g
       id="g5304"
       style="stroke-width:2;stroke-miterlimit:4;stroke-dasharray:none">
      <path
         style="fill:#c7c9e1;fill-opacity:1;stroke:#c7c9e1;stroke-width:2;stroke-linecap:butt;stroke-linejoin:miter;stroke-miterlimit:4;stroke-dasharray:none;stroke-opacity:1"
         d="m 25.540582,734.45589 c -1.551464,-0.84126 -5.487656,-0.24057 -8.120546,1.17608 -2.63289,1.41664 -3.961415,3.64871 -3.955008,5.00416 0.0064,1.35544 1.346339,1.83407 3.602797,1.54512 2.256459,-0.28894 5.268013,-1.29092 7.23001,-2.94629 1.961997,-1.65536 2.794211,-3.93782 1.242747,-4.77907 z"
         id="path959"
         inkscape:path-effect="#path-effect961"
         inkscape:original-d="m 27.924482,733.01407 c -3.935192,0.60169 -7.871384,1.20238 -11.808576,1.80207 -1.32758,2.23317 -2.656107,4.46524 -3.985661,6.69636 1.340987,0.47964 2.68092,0.95826 4.01988,1.4359 3.183517,-1.02796 6.18611,-2.05688 9.277665,-3.08681 0.833247,-2.28155 1.665461,-4.56401 2.496692,-6.84752 z" />
      <path
         style="fill:#c7c9e1;fill-opacity:1;stroke:#c7c9e1;stroke-width:2;stroke-linecap:butt;stroke-linejoin:miter;stroke-miterlimit:4;stroke-dasharray:none;stroke-opacity:1"
         d="m 35.796915,723.15573 c -0.584429,1.59432 0.428557,4.19038 1.861158,5.65402 1.432601,1.46364 3.284067,1.79585 5.025943,1.85705 1.741876,0.0612 3.37434,-0.14831 3.599301,-1.35031 0.224962,-1.202 -0.957358,-3.39773 -2.08652,-5.02494 -1.129161,-1.62722 -2.318837,-2.79714 -3.976348,-3.05922 -1.657511,-0.26209 -3.839105,0.32908 -4.423534,1.9234 z"
         id="path963"
         inkscape:path-effect="#path-effect965"
         inkscape:original-d="m 34.199029,722.15278 c 1.013986,2.59706 2.026973,5.19312 3.038959,7.78818 1.852542,0.33323 3.70401,0.66543 5.554515,0.99665 1.633531,-0.20851 3.265996,-0.418 4.897494,-0.62851 -1.181363,-2.1948 -2.363679,-4.39053 -3.547019,-6.58729 -1.020528,-1.11322 -2.265025,-2.22739 -3.399037,-3.34258 -2.180681,0.5922 -4.362275,1.18337 -6.544912,1.77355 z" />
      <path
         style="fill:#c7c9e1;fill-opacity:1;stroke:#c7c9e1;stroke-width:2;stroke-linecap:butt;stroke-linejoin:miter;stroke-miterlimit:4;stroke-dasharray:none;stroke-opacity:1"
         d="m 32.779979,713.34182 c -0.253468,1.04884 -1.078454,2.52262 -2.344679,4.15252 -1.266226,1.62991 -2.973784,3.41618 -4.561723,4.28055 -1.587939,0.86436 -3.057222,0.80677 -3.988554,0.40886 -0.931331,-0.39791 -1.324266,-1.13726 -1.187818,-2.3698 0.136447,-1.23255 0.803096,-2.95755 2.049109,-4.47062 1.246014,-1.51307 3.070911,-2.81346 4.775974,-3.49484 1.705063,-0.68139 3.289418,-0.74384 4.240866,-0.46205 0.951448,0.28178 1.270294,0.90654 1.016825,1.95538 z"
         id="path971"
         inkscape:path-effect="#path-effect973"
         inkscape:original-d="m 33.351684,712.91654 c -0.823986,1.47478 -1.648971,2.94856 -2.474957,4.42134 -1.706629,1.78735 -3.414189,3.57362 -5.122784,5.35893 -1.468343,-0.0566 -2.937626,-0.11419 -4.407939,-0.17279 -0.391949,-0.73837 -0.784881,-1.47772 -1.178822,-2.21808 0.667675,-1.72407 1.334324,-3.44907 1.999986,-5.1751 1.82597,-1.29944 3.650868,-2.59983 5.474803,-3.90125 1.585419,-0.0615 3.169776,-0.1239 4.753163,-0.18735 0.319857,0.62578 0.6387,1.25054 0.95655,1.8743 z" />
      <path
         style="fill:#c7c9e1;fill-opacity:1;stroke:#c7c9e1;stroke-width:2;stroke-linecap:butt;stroke-linejoin:miter;stroke-miterlimit:4;stroke-dasharray:none;stroke-opacity:1"
         d="m 30.617382,698.35419 c -0.269209,0.69397 0.0059,1.64444 0.868223,2.77574 0.862288,1.13131 2.310961,2.44364 3.76494,3.42604 1.453978,0.9824 2.913012,1.63522 4.186528,1.88907 1.273516,0.25386 2.361793,0.10938 2.856887,-0.79992 0.495094,-0.9093 0.397779,-2.58453 -0.296951,-4.07933 -0.694729,-1.4948 -1.987753,-2.80906 -3.667894,-3.57551 -1.68014,-0.76646 -3.747397,-0.98418 -5.188193,-0.87516 -1.440797,0.10903 -2.254331,0.5451 -2.52354,1.23907 z"
         id="path979"
         inkscape:path-effect="#path-effect981"
         inkscape:original-d="m 30.072684,698.0965 c 0.276145,0.95147 0.551289,1.90194 0.825433,2.85141 1.449731,1.31338 2.898404,2.62571 4.346106,3.93707 1.460094,0.65385 2.919129,1.30667 4.377193,1.95851 1.089321,-0.14348 2.177598,-0.28795 3.264896,-0.43343 -0.09632,-1.67429 -0.193634,-3.34952 -0.291951,-5.02577 -1.292073,-1.31331 -2.585095,-2.62757 -3.879142,-3.94285 -2.066338,-0.21673 -4.133594,-0.43446 -6.201891,-0.65319 -0.812564,0.43709 -1.626096,0.87317 -2.440644,1.30825 z" />
      <path
         style="fill:#c7c9e1;fill-opacity:1;stroke:#c7c9e1;stroke-width:2;stroke-linecap:butt;stroke-linejoin:miter;stroke-miterlimit:4;stroke-dasharray:none;stroke-opacity:1"
         d="m 55.133179,678.45525 c -0.624024,-1.57038 -1.380928,-4.09097 -2.196917,-6.722 -0.815989,-2.63102 -1.691051,-5.37237 -1.735799,-7.56037 -0.04475,-2.18799 0.741387,-3.82172 1.6838,-4.60865 0.942413,-0.78694 2.039797,-0.72669 3.012543,-0.0112 0.972746,0.71553 1.821126,2.08516 2.316644,4.13918 0.495517,2.05403 0.638823,4.79244 0.572702,7.6296 -0.06612,2.83715 -0.346517,5.82632 -0.722747,7.49964 -0.376229,1.67333 -0.850961,2.05837 -1.333272,1.94136 -0.482311,-0.117 -0.972931,-0.73723 -1.596954,-2.3076 z"
         id="path987"
         inkscape:path-effect="#path-effect989"
         inkscape:original-d="m 55.265703,679.40428 c -0.755905,-2.5196 -1.512811,-5.04019 -2.270716,-7.56179 -0.874097,-2.74046 -1.749159,-5.48181 -2.625238,-8.22422 0.787167,-1.6328 1.573303,-3.26653 2.358454,-4.90129 1.098424,0.0612 2.195805,0.12151 3.292207,0.18076 0.849414,1.37069 1.697794,2.74032 2.545191,4.10897 0.144311,2.73952 0.287616,5.47793 0.429925,8.21539 -0.276909,2.93677 -0.554807,5.92617 -0.83371,8.88775 -0.473753,0.38606 -0.948486,0.7711 -1.424229,1.15515 -0.489638,-0.61925 -0.980256,-1.23948 -1.471884,-1.86072 z" />
      <path
         style="fill:#c7c9e1;fill-opacity:1;stroke:#c7c9e1;stroke-width:2;stroke-linecap:butt;stroke-linejoin:miter;stroke-miterlimit:4;stroke-dasharray:none;stroke-opacity:1"
         d="m 69.214652,666.08009 c -0.413964,1.40497 -0.628812,4.00805 -0.769358,6.50983 -0.140546,2.50177 -0.206836,4.90209 0.05623,7.09441 0.263067,2.19232 0.855085,4.17629 1.805526,5.1677 0.950441,0.99141 2.258595,0.99141 3.300207,0.33795 1.041613,-0.65346 1.817805,-1.96063 2.178737,-3.92635 0.360931,-1.96572 0.306393,-4.59059 -0.152811,-7.06336 -0.459204,-2.47277 -1.323466,-4.79349 -2.187387,-6.42414 -0.863922,-1.63065 -1.727954,-2.57097 -2.46637,-2.93888 -0.738416,-0.36791 -1.350812,-0.16214 -1.764775,1.24284 z"
         id="path991"
         inkscape:path-effect="#path-effect993"
         inkscape:original-d="m 69.015611,664.88108 c -0.213847,2.60407 -0.428695,5.20715 -0.644543,7.80922 -0.06529,2.40142 -0.131583,4.80174 -0.198874,7.20111 0.593042,1.98505 1.185061,3.96902 1.776091,5.95203 1.309207,10e-4 2.617361,10e-4 3.924542,0 0.777222,-1.30622 1.553412,-2.61339 2.328619,-3.92158 -0.05354,-2.62397 -0.10808,-5.24884 -0.163619,-7.87476 -0.863296,-2.31981 -1.727557,-4.64053 -2.592835,-6.96229 -0.863071,-0.93937 -1.727107,-1.87969 -2.59216,-2.82104 -0.611419,0.20677 -1.223814,0.41254 -1.837221,0.61731 z" />
      <path
         style="fill:#c7c9e1;fill-opacity:1;stroke:#c7c9e1;stroke-width:2;stroke-linecap:butt;stroke-linejoin:miter;stroke-miterlimit:4;stroke-dasharray:none;stroke-opacity:1"
         d="m 90.851733,674.9557 c 1.148302,-1.02442 2.764904,-3.79968 3.753792,-6.48864 0.988888,-2.68895 1.349984,-5.29204 0.94174,-7.21764 -0.408244,-1.92559 -1.586869,-3.17377 -2.89973,-3.49531 -1.31286,-0.32155 -2.759398,0.28479 -3.64797,2.22724 -0.888572,1.94244 -1.218556,5.21976 -1.235246,7.86645 -0.01669,2.64669 0.279655,4.66238 0.768814,6.03379 0.48916,1.3714 1.170298,2.09853 2.3186,1.07411 z"
         id="path995"
         inkscape:path-effect="#path-effect997"
         inkscape:original-d="m 90.383615,676.70623 c 1.617602,-2.77426 3.234204,-5.54952 4.849805,-8.32578 0.36211,-2.60219 0.723206,-5.20528 1.083308,-7.80941 -1.177675,-1.24724 -2.356303,-2.49542 -3.535954,-3.74463 -1.445594,0.60736 -2.892131,1.2137 -4.339696,1.81905 -0.328996,3.27844 -0.658979,6.55576 -0.989969,9.83214 0.297356,2.01677 0.593701,4.03246 0.889051,6.0472 0.682165,0.72816 1.363303,1.45529 2.043455,2.18143 z" />
      <path
         style="fill:none;stroke:#000000;stroke-width:2;stroke-linecap:butt;stroke-linejoin:miter;stroke-miterlimit:4;stroke-dasharray:none;stroke-opacity:1"
         d="m 37.14841,680.79323 c 0.580377,0.53425 1.351989,1.69885 1.540764,2.87435 0.188775,1.17549 -0.204302,2.36239 -0.841209,3.12089 -0.636907,0.7585 -1.518346,1.08938 -2.197356,1.0824 -0.67901,-0.007 -1.156135,-0.35282 -1.563967,-0.96907 -0.407833,-0.61625 -0.745683,-1.50325 -0.802694,-2.38156 -0.05701,-0.8783 0.167454,-1.74735 0.632078,-2.42384 0.464624,-0.67648 1.168982,-1.15952 1.715956,-1.44977 0.546974,-0.29024 0.936051,-0.38766 1.516428,0.1466 z"
         id="path999"
         inkscape:path-effect="#path-effect1001"
         inkscape:original-d="m 36.956408,680.16173 c 0.772612,1.1656 1.544223,2.3302 2.314834,3.49379 -0.392092,1.18795 -0.785169,2.37485 -1.179254,3.56077 -0.880478,0.33189 -1.761919,0.66276 -2.644379,0.99265 -0.476141,-0.34486 -0.953264,-0.69071 -1.431395,-1.03756 -0.336864,-0.88604 -0.674714,-1.77304 -1.013571,-2.66106 0.225473,-0.86808 0.449938,-1.73713 0.673406,-2.60719 0.705387,-0.48206 1.409745,-0.9651 2.113118,-1.44915 0.390088,-0.0964 0.779161,-0.19383 1.167241,-0.29225 z" />
      <path
         style="fill:none;stroke:#000000;stroke-width:2;stroke-linecap:butt;stroke-linejoin:miter;stroke-miterlimit:4;stroke-dasharray:none;stroke-opacity:1"
         d="m 34.559419,680.28287 c -0.549459,0.7853 -1.898965,1.44954 -3.077631,1.58121 -1.178665,0.13166 -2.187227,-0.26992 -2.780513,-0.806 -0.593285,-0.53608 -0.772816,-1.21658 -0.648494,-1.82114 0.124322,-0.60457 0.551676,-1.13675 1.251653,-1.56368 0.699976,-0.42694 1.671832,-0.74829 2.6014,-0.72908 0.929567,0.0192 1.816179,0.37827 2.384335,1.012 0.568156,0.63374 0.818709,1.5414 0.26925,2.32669 z"
         id="path1003"
         inkscape:path-effect="#path-effect1005"
         inkscape:original-d="m 35.359117,680.4041 c -1.348565,0.66527 -2.698071,1.32951 -4.048604,1.99276 -1.0076,-0.40059 -2.016159,-0.80218 -3.025738,-1.20477 -0.15855,-0.6749 -0.355627,-1.35077 -0.534941,-2.02765 0.428367,-0.53119 0.855717,-1.06337 1.282076,-1.59655 0.972896,-0.32037 1.944753,-0.64172 2.91563,-0.96408 0.887652,0.36009 1.774264,0.71916 2.659897,1.07723 0.25156,0.90869 0.502114,1.81635 0.75168,2.72306 z"
         sodipodi:nodetypes="cccccccc" />
      <path
         style="fill:none;stroke:#000000;stroke-width:2;stroke-linecap:butt;stroke-linejoin:miter;stroke-miterlimit:4;stroke-dasharray:none;stroke-opacity:1"
         d="m 34.827498,676.43521 c -0.723449,-0.0234 -1.765995,-0.14489 -2.436764,-0.75098 -0.670768,-0.60608 -0.968965,-1.69777 -0.950997,-2.57563 0.01797,-0.87786 0.352621,-1.54104 0.931817,-1.9076 0.579195,-0.36656 1.40179,-0.43601 2.179817,-0.17399 0.778027,0.26201 1.511262,0.8545 1.957109,1.58598 0.445846,0.73147 0.605164,1.60163 0.535915,2.23596 -0.06925,0.63432 -0.380604,1.05239 -0.734695,1.29382 -0.354092,0.24143 -0.758753,0.31584 -1.482202,0.29244 z"
         id="path1007"
         inkscape:path-effect="#path-effect1009"
         inkscape:original-d="m 35.145492,676.53317 c -1.041545,-0.12049 -2.084091,-0.24198 -3.127636,-0.36447 -0.297212,-1.09074 -0.595412,-2.18242 -0.894619,-3.27514 0.335668,-0.66221 0.670322,-1.32539 1.003983,-1.98959 0.823624,-0.0684 1.646215,-0.1379 2.467822,-0.20835 0.734265,0.59351 1.467501,1.186 2.199751,1.77751 0.160324,0.87119 0.319642,1.74135 0.477963,2.61053 -0.283966,0.40977 -0.607844,0.81851 -0.913266,1.22627 -0.403674,0.0754 -0.808332,0.14983 -1.213998,0.22324 z" />
      <path
         style="fill:none;stroke:#000000;stroke-width:2;stroke-linecap:butt;stroke-linejoin:miter;stroke-miterlimit:4;stroke-dasharray:none;stroke-opacity:1"
         d="m 39.198419,677.226 c 0.559822,-0.0846 1.447975,-0.20232 2.305652,-0.56757 0.857677,-0.36524 1.685535,-0.97797 2.166672,-1.66182 0.481136,-0.68384 0.615848,-1.4397 0.424589,-2.08949 -0.191258,-0.64978 -0.709584,-1.19369 -1.302581,-1.37507 -0.592996,-0.18138 -1.260326,9.8e-4 -1.874857,0.2956 -0.61453,0.29462 -1.175728,0.70143 -1.619004,1.1019 -0.443277,0.40047 -0.768336,0.79434 -1.063675,1.2855 -0.29534,0.49116 -0.560815,1.07922 -0.567447,1.62503 -0.0066,0.54581 0.252603,1.06424 0.496029,1.29312 0.243427,0.22888 0.474799,0.17739 1.034622,0.0928 z"
         id="path1011"
         inkscape:path-effect="#path-effect1013"
         inkscape:original-d="m 38.869237,677.25926 c 0.889152,-0.11673 1.777304,-0.23447 2.664455,-0.3532 0.828888,-0.61175 1.656743,-1.22448 2.483614,-1.83821 0.135715,-0.75488 0.270425,-1.51074 0.404138,-2.2676 -0.517346,-0.54293 -1.035671,-1.08684 -1.555007,-1.63176 -0.666357,0.18337 -1.333688,0.36572 -2.002032,0.54708 -0.560221,0.40783 -1.121419,0.81464 -1.683628,1.22046 -0.324076,0.39489 -0.649139,0.78875 -0.975208,1.18163 -0.264488,0.58909 -0.529965,1.17715 -0.796447,1.76423 0.236745,0.51163 0.51165,1.02223 0.765975,1.53185 0.232385,-0.0505 0.46376,-0.10198 0.69414,-0.15448 z" />
      <path
         style="fill:none;stroke:#000000;stroke-width:2;stroke-linecap:butt;stroke-linejoin:miter;stroke-miterlimit:4;stroke-dasharray:none;stroke-opacity:1"
         d="m 41.770659,678.39598 c 0.455169,0.34516 1.153179,0.94524 1.523433,1.57069 0.370255,0.62545 0.413744,1.27609 0.310527,1.8545 -0.103217,0.5784 -0.352861,1.08518 -0.800549,1.34273 -0.447688,0.25755 -1.094571,0.26628 -1.772736,0.0428 -0.678165,-0.22343 -1.387747,-0.67979 -1.978582,-1.30278 -0.590835,-0.62298 -1.062439,-1.413 -1.220574,-1.97971 -0.158135,-0.56671 -0.0019,-0.90936 0.237827,-1.22661 0.239726,-0.31725 0.562666,-0.60858 1.046936,-0.74205 0.484271,-0.13347 1.128862,-0.10917 1.557477,-0.0519 0.428614,0.0573 0.641073,0.14711 1.096241,0.49227 z"
         id="path1128"
         inkscape:path-effect="#path-effect1130"
         inkscape:original-d="m 41.526743,678.14013 c 0.699014,0.60109 1.397027,1.20117 2.094041,1.80026 0.04449,0.65167 0.08798,1.30231 0.130472,1.95197 -0.248653,0.5078 -0.498297,1.01458 -0.748945,1.52037 -0.645912,0.01 -1.292798,0.0185 -1.940698,0.0262 -0.708608,-0.45537 -1.418187,-0.91173 -2.128781,-1.36909 -0.470619,-0.78904 -0.942219,-1.57906 -1.414828,-2.37008 0.157243,-0.34167 0.31348,-0.68432 0.468721,-1.02798 0.323951,-0.29034 0.64689,-0.58167 0.968835,-0.874 0.645616,0.0253 1.290207,0.0496 1.93381,0.0729 0.213462,0.0908 0.425915,0.18063 0.637373,0.26945 z" />
      <path
         style="fill:none;stroke:#000000;stroke-width:2;stroke-linecap:butt;stroke-linejoin:miter;stroke-miterlimit:4;stroke-dasharray:none;stroke-opacity:1"
         d="m 35.643696,679.68293 c 0.306107,0.21149 0.659533,0.3427 1.005128,0.29703 0.345595,-0.0457 0.684295,-0.2676 0.946695,-0.63142 0.262401,-0.36381 0.448915,-0.87017 0.483148,-1.34744 0.03423,-0.47726 -0.08434,-0.92598 -0.339219,-1.24135 -0.25488,-0.31537 -0.646918,-0.49671 -1.027071,-0.52882 -0.380153,-0.0321 -0.747782,0.0858 -1.084629,0.29441 -0.336846,0.20861 -0.642286,0.50774 -0.771695,0.91676 -0.129409,0.40901 -0.08287,0.92679 0.07008,1.33187 0.15295,0.40509 0.411453,0.69747 0.71756,0.90896 z"
         id="path2523"
         inkscape:path-effect="#path-effect2525"
         inkscape:original-d="m 35.595165,679.76277 c 0.354432,0.13221 0.707859,0.26341 1.060298,0.39362 0.339717,-0.22094 0.678412,-0.44288 1.016133,-0.66582 0.187529,-0.5054 0.374043,-1.01176 0.559571,-1.51916 -0.117581,-0.44775 -0.236153,-0.89647 -0.355734,-1.34623 -0.391069,-0.18036 -0.783109,-0.3617 -1.176179,-0.54406 -0.366647,0.1189 -0.734275,0.2368 -1.102912,0.3537 -0.304452,0.30014 -0.609892,0.59927 -0.916339,0.89741 0.04754,0.5188 0.09409,1.03658 0.13963,1.55337 0.259516,0.2934 0.518021,0.58578 0.775532,0.87717 z"
         sodipodi:nodetypes="cccccccccc" />
    </g>
  </g>
</svg>
